<svg width="148" height="33" viewBox="0 0 148 33" fill="none" xmlns="http://www.w3.org/2000/svg">
<path d="M24.6861 3.66557L16.8823 16.0915L25.7769 28.8944H3.75422V3.66557H24.6861ZM31.3913 0H0V32.56H32.863L28.886 26.8378L21.3516 15.9904L27.8859 5.58309L31.3913 0Z" fill="#FFC72C"/>
<path d="M58.2072 22.1299L60.1218 20.01C60.3519 20.5769 60.7613 21.0572 61.2903 21.3811C61.8312 21.7192 62.4617 21.8951 63.1039 21.8871C63.7894 21.924 64.4665 21.7263 65.0186 21.328C65.2505 21.1473 65.4353 20.9156 65.5577 20.6518C65.6802 20.3879 65.737 20.0995 65.7233 19.8102C65.7233 19.0631 64.9418 18.321 63.3786 17.584C62.8734 17.3488 62.4718 17.154 62.179 17.0047C60.7695 16.2863 59.7928 15.5855 59.2487 14.9025C58.7012 14.2008 58.4143 13.3382 58.4352 12.4563C58.4238 11.8393 58.5609 11.2284 58.8354 10.6726C59.1099 10.1168 59.5141 9.6317 60.0156 9.25619C61.0675 8.41295 62.4346 7.99133 64.117 7.99133C64.9874 7.97113 65.8511 8.14413 66.6431 8.49728C67.3897 8.86214 68.0343 9.39864 68.5215 10.0606L66.4851 11.9655C66.273 11.5389 65.9381 11.1819 65.5213 10.9385C65.0781 10.7014 64.578 10.5844 64.0729 10.5995C63.4783 10.5741 62.8934 10.7532 62.42 11.1054C62.3956 11.1263 62.373 11.1491 62.3526 11.1737C61.1936 12.4976 61.837 13.6672 64.2828 14.6824C64.6119 14.8165 64.8658 14.9354 65.0419 15.0037C66.4065 15.6142 67.4178 16.3023 68.0759 17.068C68.7178 17.7976 69.0675 18.7294 69.0604 19.6913C69.0604 21.1686 68.5422 22.3492 67.5059 23.2329C66.4695 24.1166 65.0877 24.5559 63.3604 24.5509C62.2689 24.5791 61.1848 24.3664 60.1892 23.9285C59.3473 23.5531 58.6521 22.9223 58.2072 22.1299Z" fill="white"/>
<path d="M41.6513 24.1285V8.38855H45.0972V15.5173L50.4707 8.38855H54.4504L48.6778 15.5603L56.7355 27.0857H52.5901L45.0972 15.8942V24.1285H41.6513Z" fill="white"/>
<path d="M86.3469 24.1285V8.38855H89.7928V14.7128H96.7883V8.38855H100.234V24.1285H96.7857V17.5512H89.7902V24.1285H86.3469Z" fill="white"/>
<path d="M118.907 16.2913C118.914 17.3868 118.695 18.4724 118.264 19.4838C117.838 20.4807 117.207 21.3814 116.409 22.1299C115.591 22.8986 114.629 23.5082 113.577 23.926C112.543 24.3382 111.436 24.5496 110.318 24.5483C109.333 24.5484 108.356 24.3832 107.429 24.0601C106.491 23.7367 105.615 23.2621 104.838 22.6561C103.85 21.8997 103.052 20.9322 102.506 19.8279C101.963 18.7232 101.685 17.5117 101.695 16.2862C101.687 15.1925 101.905 14.1084 102.335 13.0988C102.763 12.1014 103.396 11.2006 104.196 10.4527C105.006 9.68508 105.962 9.07927 107.009 8.66927C108.056 8.24958 109.176 8.03387 110.308 8.0343C111.432 8.03343 112.546 8.24921 113.585 8.66927C114.631 9.08296 115.586 9.68833 116.399 10.4527C117.198 11.205 117.831 12.1089 118.259 13.1089C118.69 14.117 118.91 15.199 118.907 16.2913ZM110.318 21.5481C110.998 21.5683 111.674 21.4447 112.3 21.1858C112.926 20.9268 113.487 20.5387 113.945 20.0479C114.905 19.0257 115.417 17.6775 115.373 16.2913C115.411 14.9012 114.893 13.5512 113.93 12.5271C113.477 12.0356 112.921 11.6455 112.299 11.3836C111.677 11.1216 111.005 10.9939 110.328 11.0093C109.648 10.9927 108.971 11.1198 108.345 11.3817C107.719 11.6437 107.158 12.0343 106.701 12.5271C105.734 13.5513 105.216 14.9041 105.258 16.2964C105.258 17.8142 105.731 19.0706 106.678 20.0656C107.141 20.5516 107.706 20.9353 108.334 21.191C108.962 21.4466 109.638 21.5684 110.318 21.5481Z" fill="white"/>
<path d="M137.585 16.2913C137.591 17.3869 137.371 18.4726 136.939 19.4838C136.514 20.4812 135.883 21.382 135.084 22.1299C134.267 22.8986 133.306 23.5081 132.255 23.926C131.22 24.3377 130.113 24.549 128.996 24.5483C128.01 24.5486 127.032 24.3835 126.104 24.0601C125.167 23.7362 124.291 23.2616 123.513 22.6561C122.525 21.8997 121.727 20.9322 121.182 19.8279C120.64 18.7226 120.364 17.5114 120.373 16.2862C120.365 15.1928 120.582 14.109 121.011 13.0988C121.44 12.0981 122.078 11.1953 122.884 10.4477C123.694 9.68048 124.651 9.07624 125.7 8.66927C126.746 8.24908 127.867 8.03335 128.998 8.0343C130.122 8.03377 131.235 8.24953 132.273 8.66927C133.319 9.08296 134.274 9.68833 135.087 10.4527C135.886 11.205 136.519 12.1089 136.947 13.1089C137.376 14.1173 137.593 15.1995 137.585 16.2913ZM128.996 21.5481C129.675 21.568 130.351 21.4442 130.977 21.1853C131.603 20.9264 132.165 20.5384 132.623 20.0479C133.582 19.0253 134.093 17.6771 134.048 16.2913C134.087 14.9009 133.57 13.5505 132.605 12.5271C132.152 12.0358 131.597 11.6458 130.976 11.3839C130.354 11.1219 129.683 10.9941 129.006 11.0093C128.325 10.9931 127.649 11.1203 127.023 11.3822C126.397 11.6441 125.836 12.0346 125.379 12.5271C124.413 13.5519 123.895 14.9043 123.936 16.2964C123.936 17.8142 124.409 19.0706 125.356 20.0656C125.819 20.5515 126.384 20.9351 127.012 21.1907C127.639 21.4464 128.316 21.5682 128.996 21.5481Z" fill="white"/>
<path d="M139.048 24.1285V8.38855H142.494V21.2699H148V24.1285H139.048Z" fill="white"/>
<path d="M84.1524 19.8633C83.5131 20.4402 82.7699 20.8965 81.9605 21.2091C81.1338 21.5188 80.255 21.6741 79.3696 21.667C77.7339 21.667 76.4384 21.1813 75.4833 20.2099C74.5281 19.2385 74.0548 17.9247 74.0635 16.2686C74.0635 14.5821 74.5739 13.2329 75.5947 12.2211C76.6155 11.2092 77.9843 10.7074 79.7012 10.7159C80.5076 10.7105 81.3077 10.8547 82.059 11.1409C82.8286 11.4516 83.537 11.8907 84.1524 12.4386V9.02855C83.436 8.69859 82.6856 8.44418 81.9139 8.26963C81.0827 8.08989 80.2339 7.99996 79.3826 8.00148C76.7761 8.00148 74.6473 8.77895 72.996 10.3339C71.3447 11.8888 70.5174 13.8671 70.5139 16.2686C70.5139 18.6718 71.3378 20.6526 72.9856 22.2109C74.6334 23.7692 76.7459 24.5484 79.323 24.5484C80.1796 24.5524 81.0331 24.4478 81.8621 24.2372C82.6685 24.0276 83.4418 23.7109 84.1602 23.2962L84.1524 19.8633Z" fill="white"/>
</svg>
